<svg width="293.3px" height="122px" xmlns="http://www.w3.org/2000/svg" viewBox="103.35 14 293.3 122" style="background: rgba(0, 0, 0, 0);" preserveAspectRatio="xMidYMid"><defs><linearGradient id="editing-shiny-gradient" x1="0.04322727117869957" x2="0.9567727288213004" y1="0.2966316784620999" y2="0.7033683215379001" gradientUnits="objectBoundingBox"><stop offset="0.0" stop-color="#ffb200"></stop><stop offset="0.5" stop-color="#e10057"></stop><stop offset="1.0" stop-color="#5A1A80"></stop></linearGradient><linearGradient id="editing-shiny-gradient2" x1="0" x2="0" y1="0" y2="1"><stop offset="0.2" stop-color="#fff" stop-opacity="0.8"></stop><stop offset="0.8" stop-color="#fff" stop-opacity="0"></stop></linearGradient><filter id="editing-shiny2" x="-100%" y="-100%" width="300%" height="300%"><feMorphology operator="erode" radius="2"></feMorphology></filter><filter id="editing-shiny" x="-100%" y="-100%" width="300%" height="300%"><feFlood flood-color="#fff" result="flood"></feFlood><feConvolveMatrix in="SourceGraphic" result="conv" order="8,8" divisor="1" kernelMatrix="0 0 0 0 0 0 0 0 0 0 0 1 1 0 0 0 0 0 0 1 1 0 0 0 0 0 1 0 0 1 0 0 0 0 1 0 0 1 0 0 0 1 0 0 0 0 1 0 0 1 1 0 0 1 1 0 0 0 0 1 1 0 0 0 "></feConvolveMatrix><feOffset dx="0" dy="4" in="conv" result="offset"></feOffset><feComposite operator="in" in="flood" in2="offset" result="comp"></feComposite><feGaussianBlur in="offset" stdDeviation="3" result="shadow"></feGaussianBlur><feColorMatrix in="shadow" type="matrix" values="0.7 0 0 0 0  0 0.7 0 0 0  0 0 0.7 0 0  0 0 0 0.3 0" result="dark-shadow"></feColorMatrix><feOffset dx="0" dy="4" in="dark-shadow" result="offset-shadow"></feOffset><feOffset dx="0" dy="2" in="conv" result="offset-2"></feOffset><feComposite operator="out" in="offset" in2="offset-2" result="edge-diff"></feComposite><feGaussianBlur in="edge-diff" stdDeviation="1" result="edge-blur"></feGaussianBlur><feColorMatrix in="edge-blur" result="edge-shadow" type="matrix" values="0 0 0 0 0  0 0 0 0 0  0 0 0 0 0  0 0 0 0.5 0"></feColorMatrix><feComposite operator="in" in="edge-shadow" in2="offset" result="edge-shadow-in"></feComposite><feOffset dx="0" dy="1" in="edge-shadow-in" result="edge-shadow-final"></feOffset><feMerge result="out"><feMergeNode in="offset-shadow"></feMergeNode><feMergeNode in="comp"></feMergeNode><feMergeNode in="edge-shadow-final"></feMergeNode><feMergeNode in="SourceGraphic"></feMergeNode></feMerge></filter></defs><g filter="url(#editing-shiny)"><g transform="translate(150.92500615119934, 98.68000030517578)"><path d="M2.05-15.62L2.05-15.62L2.05-15.62Q2.05-27.71 8.32-35.33L8.32-35.33L8.32-35.33Q14.98-43.58 26.56-43.58L26.56-43.58L26.56-43.58Q34.94-43.58 39.17-39.52L39.17-39.52L39.17-39.52Q43.39-35.46 43.39-26.88L43.39-26.88L43.39-26.88Q43.39-13.82 36.74-6.21L36.74-6.21L36.74-6.21Q30.14 1.28 19.07 1.28L19.07 1.28L19.07 1.28Q10.43 1.28 6.24-3.04L6.24-3.04L6.24-3.04Q2.05-7.36 2.05-15.62ZM18.88-28.86L18.88-28.86L18.88-28.86Q16-17.34 16-8.26L16-8.26L16-8.26Q16-6.08 16.74-4.67L16.74-4.67L16.74-4.67Q17.47-3.26 19.42-3.26L19.42-3.26L19.42-3.26Q21.38-3.26 22.59-4.19L22.59-4.19L22.59-4.19Q23.81-5.12 24.77-7.23L24.77-7.23L24.77-7.23Q26.30-10.69 27.74-18.02L27.74-18.02L27.74-18.02Q29.18-25.34 29.31-28.38L29.31-28.38L29.31-28.38Q29.44-31.42 29.44-33.73L29.44-33.73L29.44-33.73Q29.44-36.03 28.74-37.50L28.74-37.50L28.74-37.50Q28.03-38.98 26.14-38.98L26.14-38.98L26.14-38.98Q24.26-38.98 22.98-37.82L22.98-37.82L22.98-37.82Q20.61-35.65 18.88-28.86ZM61.82-3.52L61.82-3.52L61.82-3.52Q59.84 1.28 53.50 1.28L53.50 1.28L53.50 1.28Q50.30 1.28 48.26-0.96L48.26-0.96L48.26-0.96Q46.59-2.82 46.59-4.93L46.59-4.93L46.59-4.93Q46.59-9.73 48.83-20.22L48.83-20.22L53.50-44.80L66.50-46.08L60.29-13.70L60.29-13.70Q59.20-8.96 59.20-7.30L59.20-7.30L59.20-7.30Q59.20-3.65 61.82-3.52ZM93.18-10.82L93.18-10.82L93.18-10.82Q94.78-9.73 94.78-7.33L94.78-7.33L94.78-7.33Q94.78-4.93 93.57-3.39L93.57-3.39L93.57-3.39Q92.35-1.86 90.37-0.83L90.37-0.83L90.37-0.83Q86.27 1.28 81.86 1.28L81.86 1.28L81.86 1.28Q77.44 1.28 74.85 0.32L74.85 0.32L74.85 0.32Q72.26-0.64 70.53-2.43L70.53-2.43L70.53-2.43Q67.14-5.82 67.14-12.03L67.14-12.03L67.14-12.03Q67.14-21.70 72.38-27.58L72.38-27.58L72.38-27.58Q78.02-33.92 87.81-33.92L87.81-33.92L87.81-33.92Q93.89-33.92 96.90-31.36L96.90-31.36L96.90-31.36Q99.14-29.44 99.14-26.30L99.14-26.30L99.14-26.30Q99.14-15.04 79.68-15.04L79.68-15.04L79.68-15.04Q79.42-13.38 79.42-11.97L79.42-11.97L79.42-11.97Q79.42-9.02 80.74-7.90L80.74-7.90L80.74-7.90Q82.05-6.78 84.48-6.78L84.48-6.78L84.48-6.78Q86.91-6.78 89.50-7.90L89.50-7.90L89.50-7.90Q92.10-9.02 93.18-10.82ZM80.13-17.79L80.13-17.79L80.13-17.79Q84.67-17.79 87.30-20.61L87.30-20.61L87.30-20.61Q89.92-23.30 89.92-27.58L89.92-27.58L89.92-27.58Q89.92-29.06 89.38-29.86L89.38-29.86L89.38-29.86Q88.83-30.66 87.74-30.66L87.74-30.66L87.74-30.66Q86.66-30.66 85.73-30.24L85.73-30.24L85.73-30.24Q84.80-29.82 83.84-28.42L83.84-28.42L83.84-28.42Q81.47-25.22 80.13-17.79ZM133.50-7.10L133.50-7.10L133.50-7.10Q133.50-4.29 136.38-3.46L136.38-3.46L136.38-3.46Q135.68-1.09 132.93 0.19L132.93 0.19L132.93 0.19Q130.62 1.28 128.10 1.28L128.10 1.28L128.10 1.28Q125.57 1.28 124.26 0.61L124.26 0.61L124.26 0.61Q122.94-0.06 122.24-1.15L122.24-1.15L122.24-1.15Q121.09-2.82 121.09-5.95L121.09-5.95L121.09-5.95Q121.09-7.81 122.11-12.93L122.11-12.93L123.01-17.79L123.01-17.79Q124.10-23.36 124.10-25.41L124.10-25.41L124.10-25.41Q124.10-28.99 122.11-28.99L122.11-28.99L122.11-28.99Q119.62-28.99 118.02-25.34L118.02-25.34L118.02-25.34Q117.38-23.94 116.93-21.82L116.93-21.82L112.58 0L99.71 1.28L108.74-44.80L121.60-46.08L121.09-43.52L121.09-43.52Q119.30-33.66 117.76-30.34L117.76-30.34L117.76-30.34Q121.34-33.92 127.94-33.92L127.94-33.92L127.94-33.92Q134.91-33.92 136.19-29.31L136.19-29.31L136.19-29.31Q136.64-27.84 136.64-26.56L136.64-26.56L136.64-26.56Q136.64-25.28 136.54-24.29L136.54-24.29L136.54-24.29Q136.45-23.30 136.13-21.50L136.13-21.50L135.30-16.90L133.82-9.66L133.82-9.66Q133.50-8.19 133.50-7.10ZM183.87-33.92L183.87-33.92L183.87-33.92Q178.69-33.92 174.91-35.65L174.91-35.65L172.86-25.28L185.22-25.28L185.22-25.28Q185.22-21.89 183.52-19.74L183.52-19.74L183.52-19.74Q181.82-17.60 178.75-17.60L178.75-17.60L178.75-17.60Q175.42-17.60 172.35-18.82L172.35-18.82L172.35-18.82Q171.71-19.07 171.65-19.14L171.65-19.14L168.00 0L154.05 0L162.18-42.24L190.72-42.24L190.72-42.24Q190.72-38.34 188.90-36.13L188.90-36.13L188.90-36.13Q187.07-33.92 183.87-33.92ZM183.68-3.78L183.68-3.78L183.68-3.78Q183.68-6.21 185.57-7.55L185.57-7.55L185.57-7.55Q187.46-8.90 190.14-8.90L190.14-8.90L190.14-8.90Q192.83-8.90 194.46-7.55L194.46-7.55L194.46-7.55Q196.10-6.21 196.10-3.78L196.10-3.78L196.10-3.78Q196.10-1.34 194.27-0.03L194.27-0.03L194.27-0.03Q192.45 1.28 189.76 1.28L189.76 1.28L189.76 1.28Q187.07 1.28 185.38-0.03L185.38-0.03L185.38-0.03Q183.68-1.34 183.68-3.78Z" fill="url(#editing-shiny-gradient)"></path></g></g><g filter="url(#editing-shiny2)"><g transform="translate(150.9249985218048, 98.68000030517578)"><path d="M2.05-15.62L2.05-15.62L2.05-15.62Q2.05-27.71 8.32-35.33L8.32-35.33L8.32-35.33Q14.98-43.58 26.56-43.58L26.56-43.58L26.56-43.58Q34.94-43.58 39.17-39.52L39.17-39.52L39.17-39.52Q43.39-35.46 43.39-26.88L43.39-26.88L43.39-26.88Q43.39-13.82 36.74-6.21L36.74-6.21L36.74-6.21Q30.14 1.28 19.07 1.28L19.07 1.28L19.07 1.28Q10.43 1.28 6.24-3.04L6.24-3.04L6.24-3.04Q2.05-7.36 2.05-15.62ZM18.88-28.86L18.88-28.86L18.88-28.86Q16-17.34 16-8.26L16-8.26L16-8.26Q16-6.08 16.74-4.67L16.74-4.67L16.74-4.67Q17.47-3.26 19.42-3.26L19.42-3.26L19.42-3.26Q21.38-3.26 22.59-4.19L22.59-4.19L22.59-4.19Q23.81-5.12 24.77-7.23L24.77-7.23L24.77-7.23Q26.30-10.69 27.74-18.02L27.74-18.02L27.74-18.02Q29.18-25.34 29.31-28.38L29.31-28.38L29.31-28.38Q29.44-31.42 29.44-33.73L29.44-33.73L29.44-33.73Q29.44-36.03 28.74-37.50L28.74-37.50L28.74-37.50Q28.03-38.98 26.14-38.98L26.14-38.98L26.14-38.98Q24.26-38.98 22.98-37.82L22.98-37.82L22.98-37.82Q20.61-35.65 18.88-28.86ZM61.82-3.52L61.82-3.52L61.82-3.52Q59.84 1.28 53.50 1.28L53.50 1.28L53.50 1.28Q50.30 1.28 48.26-0.96L48.26-0.96L48.26-0.96Q46.59-2.82 46.59-4.93L46.59-4.93L46.59-4.93Q46.59-9.73 48.83-20.22L48.83-20.22L53.50-44.80L66.50-46.08L60.29-13.70L60.29-13.70Q59.20-8.96 59.20-7.30L59.20-7.30L59.20-7.30Q59.20-3.65 61.82-3.52ZM93.18-10.82L93.18-10.82L93.18-10.82Q94.78-9.73 94.78-7.33L94.78-7.33L94.78-7.33Q94.78-4.93 93.57-3.39L93.57-3.39L93.57-3.39Q92.35-1.86 90.37-0.83L90.37-0.83L90.37-0.83Q86.27 1.28 81.86 1.28L81.86 1.28L81.86 1.28Q77.44 1.28 74.85 0.32L74.85 0.32L74.85 0.32Q72.26-0.64 70.53-2.43L70.53-2.43L70.53-2.43Q67.14-5.82 67.14-12.03L67.14-12.03L67.14-12.03Q67.14-21.70 72.38-27.58L72.38-27.58L72.38-27.58Q78.02-33.92 87.81-33.92L87.81-33.92L87.81-33.92Q93.89-33.92 96.90-31.36L96.90-31.36L96.90-31.36Q99.14-29.44 99.14-26.30L99.14-26.30L99.14-26.30Q99.14-15.04 79.68-15.04L79.68-15.04L79.68-15.04Q79.42-13.38 79.42-11.97L79.42-11.97L79.42-11.97Q79.42-9.02 80.74-7.90L80.74-7.90L80.74-7.90Q82.05-6.78 84.48-6.78L84.48-6.78L84.48-6.78Q86.91-6.78 89.50-7.90L89.50-7.90L89.50-7.90Q92.10-9.02 93.18-10.82ZM80.13-17.79L80.13-17.79L80.13-17.79Q84.67-17.79 87.30-20.61L87.30-20.61L87.30-20.61Q89.92-23.30 89.92-27.58L89.92-27.58L89.92-27.58Q89.92-29.06 89.38-29.86L89.38-29.86L89.38-29.86Q88.83-30.66 87.74-30.66L87.74-30.66L87.74-30.66Q86.66-30.66 85.73-30.24L85.73-30.24L85.73-30.24Q84.80-29.82 83.84-28.42L83.84-28.42L83.84-28.42Q81.47-25.22 80.13-17.79ZM133.50-7.10L133.50-7.10L133.50-7.10Q133.50-4.29 136.38-3.46L136.38-3.46L136.38-3.46Q135.68-1.09 132.93 0.19L132.93 0.19L132.93 0.19Q130.62 1.28 128.10 1.28L128.10 1.28L128.10 1.28Q125.57 1.28 124.26 0.61L124.26 0.61L124.26 0.61Q122.94-0.06 122.24-1.15L122.24-1.15L122.24-1.15Q121.09-2.82 121.09-5.95L121.09-5.95L121.09-5.95Q121.09-7.81 122.11-12.93L122.11-12.93L123.01-17.79L123.01-17.79Q124.10-23.36 124.10-25.41L124.10-25.41L124.10-25.41Q124.10-28.99 122.11-28.99L122.11-28.99L122.11-28.99Q119.62-28.99 118.02-25.34L118.02-25.34L118.02-25.34Q117.38-23.94 116.93-21.82L116.93-21.82L112.58 0L99.71 1.28L108.74-44.80L121.60-46.08L121.09-43.52L121.09-43.52Q119.30-33.66 117.76-30.34L117.76-30.34L117.76-30.34Q121.34-33.92 127.94-33.92L127.94-33.92L127.94-33.92Q134.91-33.92 136.19-29.31L136.19-29.31L136.19-29.31Q136.64-27.84 136.64-26.56L136.64-26.56L136.64-26.56Q136.64-25.28 136.54-24.29L136.54-24.29L136.54-24.29Q136.45-23.30 136.13-21.50L136.13-21.50L135.30-16.90L133.82-9.66L133.82-9.66Q133.50-8.19 133.50-7.10ZM183.87-33.92L183.87-33.92L183.87-33.92Q178.69-33.92 174.91-35.65L174.91-35.65L172.86-25.28L185.22-25.28L185.22-25.28Q185.22-21.89 183.52-19.74L183.52-19.74L183.52-19.74Q181.82-17.60 178.75-17.60L178.75-17.60L178.75-17.60Q175.42-17.60 172.35-18.82L172.35-18.82L172.35-18.82Q171.71-19.07 171.65-19.14L171.65-19.14L168.00 0L154.05 0L162.18-42.24L190.72-42.24L190.72-42.24Q190.72-38.34 188.90-36.13L188.90-36.13L188.90-36.13Q187.07-33.92 183.87-33.92ZM183.68-3.78L183.68-3.78L183.68-3.78Q183.68-6.21 185.57-7.55L185.57-7.55L185.57-7.55Q187.46-8.90 190.14-8.90L190.14-8.90L190.14-8.90Q192.83-8.90 194.46-7.55L194.46-7.55L194.46-7.55Q196.10-6.21 196.10-3.78L196.10-3.78L196.10-3.78Q196.10-1.34 194.27-0.03L194.27-0.03L194.27-0.03Q192.45 1.28 189.76 1.28L189.76 1.28L189.76 1.28Q187.07 1.28 185.38-0.03L185.38-0.03L185.38-0.03Q183.68-1.34 183.68-3.78Z" fill="url(#editing-shiny-gradient2)"></path></g></g><style>text {
  font-size: 64px;
  font-family: Arial Black;
  dominant-baseline: central;
  text-anchor: middle;
}</style></svg>