<svg width="637.26875px" height="122px" xmlns="http://www.w3.org/2000/svg" viewBox="-68.63437499999998 14 637.26875 122" style="background: rgba(0, 0, 0, 0);" preserveAspectRatio="xMidYMid"><defs><filter id="editing-extrusion" x="-100%" y="-100%" width="300%" height="300%"><feFlood result="color1" flood-color="#444"></feFlood><feConvolveMatrix order="8,8" divisor="1" kernelMatrix="1 0 0 0 0 0 0 0 0 1 0 0 0 0 0 0 0 0 1 0 0 0 0 0 0 0 0 1 0 0 0 0 0 0 0 0 1 0 0 0 0 0 0 0 0 1 0 0 0 0 0 0 0 0 1 0 0 0 0 0 0 0 0 1" in="SourceAlpha" result="extrude"></feConvolveMatrix><feComposite in="color1" in2="extrude" result="comp-extrude" operator="in"></feComposite><feOffset dx="4" dy="4" in="comp-extrude" result="offset-extrude"></feOffset><feMerge><feMergeNode in="offset-extrude"></feMergeNode><feMergeNode in="SourceGraphic"></feMergeNode></feMerge></filter></defs><g filter="url(#editing-extrusion)"><g transform="translate(22.95997929573059, 98.68000030517578)"><path d="M2.05-15.62L2.05-15.62L2.05-15.62Q2.05-27.71 8.32-35.33L8.32-35.33L8.32-35.33Q14.98-43.58 26.56-43.58L26.56-43.58L26.56-43.58Q34.94-43.58 39.17-39.52L39.17-39.52L39.17-39.52Q43.39-35.46 43.39-26.88L43.39-26.88L43.39-26.88Q43.39-13.82 36.74-6.21L36.74-6.21L36.74-6.21Q30.14 1.28 19.07 1.28L19.07 1.28L19.07 1.28Q10.43 1.28 6.24-3.04L6.24-3.04L6.24-3.04Q2.05-7.36 2.05-15.62ZM18.88-28.86L18.88-28.86L18.88-28.86Q16-17.34 16-8.26L16-8.26L16-8.26Q16-6.08 16.74-4.67L16.74-4.67L16.74-4.67Q17.47-3.26 19.42-3.26L19.42-3.26L19.42-3.26Q21.38-3.26 22.59-4.19L22.59-4.19L22.59-4.19Q23.81-5.12 24.77-7.23L24.77-7.23L24.77-7.23Q26.30-10.69 27.74-18.02L27.74-18.02L27.74-18.02Q29.18-25.34 29.31-28.38L29.31-28.38L29.31-28.38Q29.44-31.42 29.44-33.73L29.44-33.73L29.44-33.73Q29.44-36.03 28.74-37.50L28.74-37.50L28.74-37.50Q28.03-38.98 26.14-38.98L26.14-38.98L26.14-38.98Q24.26-38.98 22.98-37.82L22.98-37.82L22.98-37.82Q20.61-35.65 18.88-28.86ZM61.82-3.52L61.82-3.52L61.82-3.52Q59.84 1.28 53.50 1.28L53.50 1.28L53.50 1.28Q50.30 1.28 48.26-0.96L48.26-0.96L48.26-0.96Q46.59-2.82 46.59-4.93L46.59-4.93L46.59-4.93Q46.59-9.73 48.83-20.22L48.83-20.22L53.50-44.80L66.50-46.08L60.29-13.70L60.29-13.70Q59.20-8.96 59.20-7.30L59.20-7.30L59.20-7.30Q59.20-3.65 61.82-3.52ZM93.18-10.82L93.18-10.82L93.18-10.82Q94.78-9.73 94.78-7.33L94.78-7.33L94.78-7.33Q94.78-4.93 93.57-3.39L93.57-3.39L93.57-3.39Q92.35-1.86 90.37-0.83L90.37-0.83L90.37-0.83Q86.27 1.28 81.86 1.28L81.86 1.28L81.86 1.28Q77.44 1.28 74.85 0.32L74.85 0.32L74.85 0.32Q72.26-0.64 70.53-2.43L70.53-2.43L70.53-2.43Q67.14-5.82 67.14-12.03L67.14-12.03L67.14-12.03Q67.14-21.70 72.38-27.58L72.38-27.58L72.38-27.58Q78.02-33.92 87.81-33.92L87.81-33.92L87.81-33.92Q93.89-33.92 96.90-31.36L96.90-31.36L96.90-31.36Q99.14-29.44 99.14-26.30L99.14-26.30L99.14-26.30Q99.14-15.04 79.68-15.04L79.68-15.04L79.68-15.04Q79.42-13.38 79.42-11.97L79.42-11.97L79.42-11.97Q79.42-9.02 80.74-7.90L80.74-7.90L80.74-7.90Q82.05-6.78 84.48-6.78L84.48-6.78L84.48-6.78Q86.91-6.78 89.50-7.90L89.50-7.90L89.50-7.90Q92.10-9.02 93.18-10.82ZM80.13-17.79L80.13-17.79L80.13-17.79Q84.67-17.79 87.30-20.61L87.30-20.61L87.30-20.61Q89.92-23.30 89.92-27.58L89.92-27.58L89.92-27.58Q89.92-29.06 89.38-29.86L89.38-29.86L89.38-29.86Q88.83-30.66 87.74-30.66L87.74-30.66L87.74-30.66Q86.66-30.66 85.73-30.24L85.73-30.24L85.73-30.24Q84.80-29.82 83.84-28.42L83.84-28.42L83.84-28.42Q81.47-25.22 80.13-17.79ZM133.50-7.10L133.50-7.10L133.50-7.10Q133.50-4.29 136.38-3.46L136.38-3.46L136.38-3.46Q135.68-1.09 132.93 0.19L132.93 0.19L132.93 0.19Q130.62 1.28 128.10 1.28L128.10 1.28L128.10 1.28Q125.57 1.28 124.26 0.61L124.26 0.61L124.26 0.61Q122.94-0.06 122.24-1.15L122.24-1.15L122.24-1.15Q121.09-2.82 121.09-5.95L121.09-5.95L121.09-5.95Q121.09-7.81 122.11-12.93L122.11-12.93L123.01-17.79L123.01-17.79Q124.10-23.36 124.10-25.41L124.10-25.41L124.10-25.41Q124.10-28.99 122.11-28.99L122.11-28.99L122.11-28.99Q119.62-28.99 118.02-25.34L118.02-25.34L118.02-25.34Q117.38-23.94 116.93-21.82L116.93-21.82L112.58 0L99.71 1.28L108.74-44.80L121.60-46.08L121.09-43.52L121.09-43.52Q119.30-33.66 117.76-30.34L117.76-30.34L117.76-30.34Q121.34-33.92 127.94-33.92L127.94-33.92L127.94-33.92Q134.91-33.92 136.19-29.31L136.19-29.31L136.19-29.31Q136.64-27.84 136.64-26.56L136.64-26.56L136.64-26.56Q136.64-25.28 136.54-24.29L136.54-24.29L136.54-24.29Q136.45-23.30 136.13-21.50L136.13-21.50L135.30-16.90L133.82-9.66L133.82-9.66Q133.50-8.19 133.50-7.10ZM183.87-33.92L183.87-33.92L183.87-33.92Q178.69-33.92 174.91-35.65L174.91-35.65L172.86-25.28L185.22-25.28L185.22-25.28Q185.22-21.89 183.52-19.74L183.52-19.74L183.52-19.74Q181.82-17.60 178.75-17.60L178.75-17.60L178.75-17.60Q175.42-17.60 172.35-18.82L172.35-18.82L172.35-18.82Q171.71-19.07 171.65-19.14L171.65-19.14L168.00 0L154.05 0L162.18-42.24L190.72-42.24L190.72-42.24Q190.72-38.34 188.90-36.13L188.90-36.13L188.90-36.13Q187.07-33.92 183.87-33.92ZM208.64-17.98L208.64-17.98L208.64-17.98Q210.94-22.08 210.94-26.24L210.94-26.24L210.94-26.24Q210.94-28.99 208.96-28.99L208.96-28.99L208.96-28.99Q207.42-28.99 205.82-26.37L205.82-26.37L205.82-26.37Q204.16-23.74 203.65-20.35L203.65-20.35L200.32 0L187.07 1.28L193.60-32.64L204.16-33.92L203.01-27.46L203.01-27.46Q206.14-33.92 213.18-33.92L213.18-33.92L213.18-33.92Q216.90-33.92 218.91-32L218.91-32L218.91-32Q220.93-30.08 220.93-26.14L220.93-26.14L220.93-26.14Q220.93-22.21 218.34-19.71L218.34-19.71L218.34-19.71Q215.74-17.22 211.33-17.22L211.33-17.22L211.33-17.22Q209.41-17.22 208.64-17.98ZM224.74-1.92L224.74-1.92L224.74-1.92Q223.23-3.58 222.56-6.21L222.56-6.21L222.56-6.21Q221.89-8.83 221.89-13.12L221.89-13.12L221.89-13.12Q221.89-17.41 223.36-21.31L223.36-21.31L223.36-21.31Q224.83-25.22 227.52-28.03L227.52-28.03L227.52-28.03Q233.02-33.92 242.11-33.92L242.11-33.92L242.11-33.92Q245.38-33.92 247.74-32.83L247.74-32.83L258.69-33.92L253.95-8.96L253.95-8.96Q253.76-8.19 253.76-6.78L253.76-6.78L253.76-6.78Q253.76-5.38 254.62-4.48L254.62-4.48L254.62-4.48Q255.49-3.58 256.77-3.46L256.77-3.46L256.77-3.46Q256.13-1.28 253.79 0L253.79 0L253.79 0Q251.46 1.28 248.83 1.28L248.83 1.28L248.83 1.28Q246.21 1.28 244.45 0.29L244.45 0.29L244.45 0.29Q242.69-0.70 242.18-2.37L242.18-2.37L242.18-2.37Q241.15-0.77 238.98 0.26L238.98 0.26L238.98 0.26Q236.80 1.28 233.89 1.28L233.89 1.28L233.89 1.28Q230.98 1.28 228.61 0.51L228.61 0.51L228.61 0.51Q226.24-0.26 224.74-1.92ZM238.24-27.90L238.24-27.90L238.24-27.90Q237.50-26.75 236.86-24.80L236.86-24.80L236.86-24.80Q236.22-22.85 235.17-17.63L235.17-17.63L235.17-17.63Q234.11-12.42 234.11-8.70L234.11-8.70L234.11-8.70Q234.11-4.99 234.69-3.90L234.69-3.90L234.69-3.90Q235.26-2.82 236.29-2.82L236.29-2.82L236.29-2.82Q238.34-2.82 239.84-4.77L239.84-4.77L239.84-4.77Q241.34-6.72 241.92-10.18L241.92-10.18L245.31-28.93L245.31-28.93Q243.97-30.08 242.40-30.08L242.40-30.08L242.40-30.08Q240.83-30.08 239.90-29.57L239.90-29.57L239.90-29.57Q238.98-29.06 238.24-27.90ZM289.22 1.28L289.22 1.28L289.22 1.28Q281.47 1.28 281.47-4.74L281.47-4.74L281.47-4.74Q281.54-6.40 282.05-9.22L282.05-9.22L283.20-15.10L283.20-15.10Q284.93-23.42 284.93-25.28L284.93-25.28L284.93-25.28Q284.93-28.99 282.75-28.99L282.75-28.99L282.75-28.99Q279.10-28.99 277.18-19.46L277.18-19.46L273.41 0L260.54 1.28L267.20-32.70L277.70-33.92L276.67-27.65L276.67-27.65Q279.68-33.92 288.90-33.92L288.90-33.92L288.90-33.92Q293.38-33.92 295.26-32.03L295.26-32.03L295.26-32.03Q297.15-30.14 297.15-25.92L297.15-25.92L297.15-25.92Q297.15-21.95 295.10-12.67L295.10-12.67L295.10-12.67Q294.14-8.51 294.14-6.94L294.14-6.94L294.14-6.94Q294.14-5.38 295.01-4.48L295.01-4.48L295.01-4.48Q295.87-3.58 297.15-3.46L297.15-3.46L297.15-3.46Q296.51-1.28 294.30 0L294.30 0L294.30 0Q292.10 1.28 289.22 1.28ZM333.70-26.62L333.70-26.62L333.70-26.62Q333.70-23.94 331.46-22.27L331.46-22.27L331.46-22.27Q329.22-20.61 325.57-20.61L325.57-20.61L325.57-20.61Q324.03-20.61 323.14-21.06L323.14-21.06L323.14-21.06Q323.84-22.72 324.06-24.80L324.06-24.80L324.06-24.80Q324.29-26.88 324.29-27.46L324.29-27.46L324.29-27.46Q324.29-30.14 322.43-30.14L322.43-30.14L322.43-30.14Q321.15-30.14 319.71-28.54L319.71-28.54L319.71-28.54Q318.27-26.94 317.06-24.45L317.06-24.45L317.06-24.45Q314.37-18.69 314.37-12.86L314.37-12.86L314.37-12.86Q314.37-9.66 315.58-8.22L315.58-8.22L315.58-8.22Q316.80-6.78 319.49-6.78L319.49-6.78L319.49-6.78Q323.20-6.78 326.14-9.86L326.14-9.86L326.14-9.86Q326.98-10.82 327.42-11.90L327.42-11.90L327.42-11.90Q329.86-10.62 329.86-7.10L329.86-7.10L329.86-7.10Q329.86-3.52 325.89-1.15L325.89-1.15L325.89-1.15Q321.79 1.28 315.26 1.28L315.26 1.28L315.26 1.28Q302.27 1.28 302.27-12.48L302.27-12.48L302.27-12.48Q302.27-22.53 307.97-28.29L307.97-28.29L307.97-28.29Q313.47-33.92 323.58-33.92L323.58-33.92L323.58-33.92Q333.70-33.92 333.70-26.62ZM367.62-7.10L367.62-7.10L367.62-7.10Q367.62-4.29 370.50-3.46L370.50-3.46L370.50-3.46Q369.79-1.09 367.04 0.19L367.04 0.19L367.04 0.19Q364.74 1.28 362.21 1.28L362.21 1.28L362.21 1.28Q359.68 1.28 358.37 0.61L358.37 0.61L358.37 0.61Q357.06-0.06 356.35-1.15L356.35-1.15L356.35-1.15Q355.20-2.82 355.20-5.95L355.20-5.95L355.20-5.95Q355.20-7.81 356.22-12.93L356.22-12.93L357.12-17.79L357.12-17.79Q358.21-23.36 358.21-25.41L358.21-25.41L358.21-25.41Q358.21-28.99 356.22-28.99L356.22-28.99L356.22-28.99Q353.73-28.99 352.13-25.34L352.13-25.34L352.13-25.34Q351.49-23.94 351.04-21.82L351.04-21.82L346.69 0L333.82 1.28L342.85-44.80L355.71-46.08L355.20-43.52L355.20-43.52Q353.41-33.66 351.87-30.34L351.87-30.34L351.87-30.34Q355.46-33.92 362.05-33.92L362.05-33.92L362.05-33.92Q369.02-33.92 370.30-29.31L370.30-29.31L370.30-29.31Q370.75-27.84 370.75-26.56L370.75-26.56L370.75-26.56Q370.75-25.28 370.66-24.29L370.66-24.29L370.66-24.29Q370.56-23.30 370.24-21.50L370.24-21.50L369.41-16.90L367.94-9.66L367.94-9.66Q367.62-8.19 367.62-7.10ZM396.22-2.69L396.22-2.69L396.22-2.69Q393.15 1.28 385.54 1.28L385.54 1.28L385.54 1.28Q381.57 1.28 378.69-1.12L378.69-1.12L378.69-1.12Q375.81-3.52 375.81-6.98L375.81-6.98L375.81-6.98Q375.81-8.90 376-9.86L376-9.86L380.29-32.64L393.28-33.92L388.61-9.22L388.61-9.22Q388.35-7.81 388.35-6.98L388.35-6.98L388.35-6.98Q388.35-3.26 390.59-3.26L390.59-3.26L390.59-3.26Q393.09-3.26 394.88-6.66L394.88-6.66L394.88-6.66Q395.46-7.74 395.71-9.15L395.71-9.15L400.26-32.64L412.86-33.92L408.13-8.96L408.13-8.96Q407.94-8 407.94-6.98L407.94-6.98L407.94-6.98Q407.94-5.95 408.51-4.83L408.51-4.83L408.51-4.83Q409.09-3.71 410.94-3.46L410.94-3.46L410.94-3.46Q410.56-1.92 409.22-0.90L409.22-0.90L409.22-0.90Q406.40 1.28 403.36 1.28L403.36 1.28L403.36 1.28Q400.32 1.28 398.53 0.19L398.53 0.19L398.53 0.19Q396.74-0.90 396.22-2.69ZM432.83-30.34L432.83-30.34L432.83-30.34Q436.29-33.92 443.58-33.92L443.58-33.92L443.58-33.92Q447.62-33.92 449.82-31.78L449.82-31.78L449.82-31.78Q452.03-29.63 452.03-25.70L452.03-25.70L452.03-25.70Q452.03-21.76 449.82-18.98L449.82-18.98L449.82-18.98Q447.62-16.19 443.52-15.04L443.52-15.04L443.52-15.04Q443.84-13.76 444.29-12.42L444.29-12.42L445.18-9.86L445.18-9.86Q446.40-6.59 447.36-5.44L447.36-5.44L447.36-5.44Q448.32-4.29 449.60-3.90L449.60-3.90L449.60-3.90Q448.90-1.28 446.34 0.13L446.34 0.13L446.34 0.13Q444.29 1.28 441.47 1.28L441.47 1.28L441.47 1.28Q433.22 1.28 432.13-11.46L432.13-11.46L432.13-11.46Q431.94-13.25 431.94-15.04L431.94-15.04L431.94-15.04Q435.14-15.94 437.38-18.94L437.38-18.94L437.38-18.94Q439.62-21.95 439.62-25.47L439.62-25.47L439.62-25.47Q439.62-28.99 437.12-28.99L437.12-28.99L437.12-28.99Q435.33-28.99 433.92-27.01L433.92-27.01L433.92-27.01Q432.51-25.02 431.87-21.63L431.87-21.63L427.65 0L414.72 1.28L423.68-44.80L436.54-46.08L435.07-38.46L435.07-38.46Q434.11-33.09 432.83-30.34Z" fill="#ccc"></path></g></g><style>text {
  font-size: 64px;
  font-family: Arial Black;
  dominant-baseline: central;
  text-anchor: middle;
}</style></svg>